<svg width="24" height="24" viewBox="0 0 24 24" fill="none" xmlns="http://www.w3.org/2000/svg">
<path d="M19.5063 15.1309C19.9864 14.8581 20.5966 15.0259 20.8696 15.5059C21.1229 15.9517 20.9959 16.5097 20.5922 16.8057L20.4946 16.8691L13.8998 20.6172C13.0701 21.093 12.0575 21.1251 11.1996 20.7129L11.018 20.6182L4.50139 16.8672C4.02274 16.5917 3.85769 15.9796 4.13322 15.501C4.3891 15.0566 4.93514 14.883 5.39494 15.0811L5.49944 15.1338L12.0121 18.8828C12.2523 19.0198 12.5458 19.0371 12.8012 18.9326L12.9086 18.8799L19.5063 15.1309ZM19.603 11.4707C20.0831 11.1978 20.6934 11.3665 20.9662 11.8467C21.2195 12.2925 21.0927 12.8506 20.6889 13.1465L20.5912 13.21L13.9965 16.957C13.1668 17.4328 12.1541 17.4659 11.2963 17.0537L11.1147 16.958L4.59807 13.207C4.11954 12.9315 3.95544 12.3204 4.23088 11.8418C4.48671 11.3974 5.03181 11.2229 5.49162 11.4209L5.59612 11.4736L12.1098 15.2227C12.3499 15.3596 12.6425 15.3768 12.8979 15.2725L13.0053 15.2207L19.603 11.4707ZM10.9574 2.63672C11.5973 2.24607 12.4025 2.24607 13.0424 2.63672L19.1586 6.37012C20.4462 7.15633 20.4327 9.03097 19.1342 9.79883L13.0405 13.4004C12.4142 13.7704 11.6363 13.771 11.0092 13.4023L4.87737 9.79688C3.57494 9.03107 3.55949 7.1535 4.84904 6.36621L10.9574 2.63672Z" fill="#7D8592"/>
</svg>
