<svg width="24" height="24" viewBox="0 0 24 24" fill="none" xmlns="http://www.w3.org/2000/svg">
<path d="M16 2C16.5523 2 17 2.44772 17 3V4C19.2091 4 21 5.79086 21 8V18C21 20.2091 19.2091 22 17 22H7C4.79086 22 3 20.2091 3 18V8C3 5.79086 4.79086 4 7 4V3C7 2.44772 7.44772 2 8 2C8.55228 2 9 2.44772 9 3V4H15V3C15 2.44772 15.4477 2 16 2ZM5 18C5 19.0543 5.81581 19.9177 6.85059 19.9941L7 20H17C18.0543 20 18.9177 19.1842 18.9941 18.1494L19 18V11H5V18ZM9 6C9 6.55228 8.55228 7 8 7C7.48232 7 7.05621 6.60667 7.00488 6.10254L7 6C5.9457 6 5.08229 6.81581 5.00586 7.85059L5 8V9H19V8C19 6.9457 18.1842 6.08229 17.1494 6.00586L17 6C17 6.55228 16.5523 7 16 7C15.4823 7 15.0562 6.60667 15.0049 6.10254L15 6H9Z" fill="#0A1629"/>
</svg>
