<svg width="24" height="24" viewBox="0 0 24 24" fill="none" xmlns="http://www.w3.org/2000/svg">
<path d="M13.5567 19.1035C14.3273 19.1035 14.8083 19.9379 14.4219 20.6045C13.9211 21.468 12.9983 21.9999 12.0001 22C11.0017 22 10.0781 21.4681 9.57721 20.6045C9.21031 19.9713 9.62617 19.1864 10.3292 19.1094L10.4424 19.1035H13.5567ZM12.0001 2C15.951 2.00019 19.1688 5.13996 19.296 9.06055L19.2999 9.30078V13.8018C19.2999 14.6914 19.9826 15.4215 20.8526 15.4961L21.1329 15.5098C22.2441 15.629 22.2866 17.2406 21.2608 17.4746L21.1329 17.4951L21.0001 17.502H3.00006L2.86627 17.4951C1.71088 17.3709 1.71089 15.634 2.86627 15.5098L3.14655 15.4961C3.9683 15.4258 4.62318 14.7703 4.69342 13.9482L4.69928 13.8018V9.30078C4.69946 5.26868 7.96845 2 12.0001 2ZM12.0001 4C9.14617 4 6.81873 6.25657 6.70416 9.08301L6.69928 9.30078V13.8018C6.69928 14.3103 6.59679 14.7952 6.41119 15.2363L6.31158 15.4531L6.28424 15.502H17.7139L17.6876 15.4531C17.5037 15.085 17.3793 14.6813 17.3272 14.2559L17.3047 13.998L17.2999 13.8018V9.30078C17.2997 6.37329 14.9269 4.0002 12.0001 4Z" fill="#0A1629"/>
</svg>
